<svg version="1.2" xmlns="http://www.w3.org/2000/svg" viewBox="0 0 26 25" width="26" height="25"><defs><clipPath clipPathUnits="userSpaceOnUse" id="cp1"><path d="m-1482-5152h1920v5483h-1920z"/></clipPath></defs><style>.a{fill:none;stroke:#8a3ab9;stroke-linecap:round;stroke-width:2}</style><g clip-path="url(#cp1)"><path class="a" d="m1.7 6.7c0-3.1 2.6-5.7 5.8-5.7h11.4c3.2 0 5.7 2.6 5.7 5.7v11.5c0 3.1-2.5 5.7-5.7 5.7h-11.4c-3.2 0-5.8-2.6-5.8-5.7z"/><path class="a" d="m17.8 11.7c0.3 2.5-1.4 4.9-3.9 5.2-2.5 0.4-4.8-1.3-5.2-3.8-0.4-2.5 1.4-4.9 3.9-5.2q0.6-0.1 1.3 0c2 0.3 3.6 1.8 3.9 3.8z" fill="#8a3ab9"/></g></svg>