<svg version="1.2" xmlns="http://www.w3.org/2000/svg" viewBox="0 0 32 31" width="32" height="31"><defs><clipPath clipPathUnits="userSpaceOnUse" id="cp1"><path d="m-1377-5146h1920v5483h-1920z"/></clipPath></defs><style>.a{fill:none;stroke:#ccc;stroke-linecap:round;stroke-width:2}</style><g clip-path="url(#cp1)"><path class="a" d="m21.4 10.2c4.6 0 8.4 3.7 8.4 8.3v9.7h-5.6v-9.7c0-1.6-1.2-2.8-2.8-2.8-1.5 0-2.7 1.2-2.7 2.8v9.7h-5.6v-9.7c0-4.6 3.7-8.3 8.3-8.3z"/><path class="a" d="m2 11.5h5.6v16.7h-5.6z"/><path class="a" d="m4.8 7.4c-1.5 0-2.8-1.3-2.8-2.8 0-1.5 1.3-2.8 2.8-2.8 1.5 0 2.8 1.3 2.8 2.8 0 1.5-1.3 2.8-2.8 2.8z"/></g></svg>