<svg version="1.2" xmlns="http://www.w3.org/2000/svg" viewBox="0 0 34 25" width="34" height="25"><defs><clipPath clipPathUnits="userSpaceOnUse" id="cp1"><path d="m-1430-5154h1920v5483h-1920z" /></clipPath></defs><style>.a{fill:none;stroke:#c4302b;stroke-linecap:round;stroke-width:2}</style><g clip-path="url(#cp1)"><path class="a" d="m31 12.1q0 3.4-0.6 6.8c-0.3 1.2-1.2 2.2-2.5 2.6-2.2 0.6-11 0.6-11 0.6 0 0-8.9 0-11.1-0.6-1.2-0.4-2.1-1.3-2.5-2.5q-0.6-3.4-0.5-6.9-0.1-3.4 0.5-6.8c0.4-1.2 1.3-2.2 2.5-2.5 2.2-0.6 11.1-0.6 11.1-0.6 0 0 8.8 0 11 0.5 1.3 0.4 2.2 1.4 2.5 2.6q0.7 3.4 0.6 6.8z" /><path class="a" d="m14 7.9l7.4 4.2-7.4 4.2z"  fill="#c4302b"/></g></svg>